<svg width="12" height="5" viewBox="0 0 12 5" fill="none" xmlns="http://www.w3.org/2000/svg">
<path d="M11.5818 4.29997H11.36H0.640037C0.486485 4.29997 0.345671 4.19237 0.318617 4.04569C0.275532 3.88563 0.350476 3.75011 0.472702 3.66863L0.476844 3.66587L0.476908 3.66598L5.83662 0.46615C5.83666 0.466125 5.83671 0.466099 5.83675 0.466073L5.83691 0.465979L5.88817 0.551841C5.96817 0.503716 6.06442 0.503716 6.12817 0.551841L11.5818 4.29997ZM11.5818 4.29997L11.5366 4.24878C11.6335 4.18881 11.7013 4.08325 11.7149 3.97131L11.7156 3.9714V3.95926C11.7156 3.82907 11.6337 3.69696 11.517 3.64602L6.18352 0.468415L11.5818 4.29997ZM10.119 3.61997H1.86586L5.99994 1.14837L10.119 3.61997Z" fill="#213F7D" stroke="#213F7D" stroke-width="0.2"/>
</svg>
